<svg width="2047" height="2049" viewBox="0 0 2047 2049" fill="none" xmlns="http://www.w3.org/2000/svg">
<g clip-path="url(#clip0_6280_741)">
<path d="M900.282 570.773V1145.63H1549.6V1061.83H1633.34V979.21H1716.97V894.905H1800.2V808.828H1884.49V723.982H1964.78V642.108H2045.05V0H1472.67V83.9151H1392.4V167.56H1311.57V246.101H1227.13V328.155H1147.41V408.437H1064.32V488.749H982.287V572.815L900.282 570.773Z" fill="url(#paint0_linear_6280_741)"/>
<path d="M0 570.773V1145.63H649.315V1061.83H733.091V979.21H816.717V894.905H899.922V808.828H984.238V723.982H1064.5V642.108H1144.77V0H572.383V83.9151H492.119V167.56H411.315V246.101H326.879V328.155H247.125V408.437H164.04V488.749H82.0049V572.815L0 570.773Z" fill="white"/>
<path d="M0 1313.13V1583.1H52.7389V1422.53H81.4346V1473.72H107.819V1529.6H135.734V1557.52H159.777V1529.6H190.034V1503.99H216.388V1448.11H243.523V1583.1H299.384V1310.04H244.304V1367.44H215.608V1420.97H188.473V1446.58H160.558V1476.07H134.954V1420.19H107.819V1390.71H79.8737V1339.52H51.178V1312.95L0 1313.13Z" fill="white"/>
<path d="M437.429 1310.04H383.129V1583.1H437.429V1310.04Z" fill="white"/>
<path d="M490.949 1310.04H543.688V1341.08H573.164V1368.22H598.768V1422.53H626.683V1450.46H653.037V1476.82H682.424V1310.04H736.813V1583.1H684.795L684.014 1557.52H655.379V1527.26H627.463V1501.65H598.768V1446.58H573.944V1421.75H544.468V1583.1H490.949V1310.04Z" fill="white"/>
<path d="M1035.42 1365.13V1337.99H1009.81V1310.07H792.644V1583.13H980.336V1556.74H1033.08V1531.13H1061.77V1365.1H1035.39L1035.42 1365.13ZM1007.5 1504.77H981.897V1531.16H927.207V1557.55H846.163V1338.77H954.732V1368.25H981.117V1391.52H1007.5V1504.8V1504.77Z" fill="white"/>
<path d="M0 1775.94H52.7389V1806.98H82.215V1834.12H107.819V1856.52H135.734V1884.44H162.089V1942.72H191.475V1775.94H245.865V2049H193.846L193.066 1993.79H164.43V1963.52H136.515V1937.94H107.819V1912.48H82.9954V1860.3H53.5193V2049H0V1775.94Z" fill="white"/>
<path d="M326.909 1775.94V2049H517.723V1996.61H383.129V1941.91H490.948V1912.48H517.723V1886.06H383.129V1831.36H354.824V1803.44H627.073V2049H682.903V1801.1H763.197V1832.53H792.673V1912.48H821.369V1998.92H846.163V2049H896.981V1997.75H926.847V1912.48H955.152V1860.45H985.409V1940.74H1007.5V2019.88H1037.76V2049H1090.11V1997.75H1115.68V1912.48H1144.77V1827.88H1173.85V1775.94H1118.02V1831.36H1088.94V1912.48H1061.8V1938.42H1036.59V1858.11H1007.5V1775.94H927.237V1856.97H899.292V1938.42H872.547V1912.48H846.163V1827.88H816.717V1775.94H326.909Z" fill="white"/>
<path d="M1443.37 1834.45V1804.19H1416.23V1775.91H1257.24V1803.41H1197.51V1860.81H1173.85V1968.66H1199.85V1992.71H1228.54V2022.19H1257.24V2049H1391.41V2019.85H1443.37V1992.71H1472.07V1834.45H1443.37ZM1418.58 1967.13H1390.66V1995.83H1336.36V2022.22H1310.76V1995.83H1254.93V1967.91H1227.01V1856.19H1256.49V1831.36H1282.09L1282.87 1804.97H1363.53V1828.24H1418.61V1967.1L1418.58 1967.13Z" fill="white"/>
<path d="M1719.49 1940.74V1912.45H1745.88V1804.97H1717.18V1775.94H1525.61V2049H1583.01V1968.72H1667.53V2022.19H1690.8V2049H1745.88V2022.19H1717.18V1967.22H1693.05V1940.74H1719.52H1719.49ZM1691.01 1912.48H1582.8V1828.45H1558.27V1801.1H1664.83V1826.71H1691.01V1912.48Z" fill="white"/>
<path d="M1800.35 1775.94V2049H1856.19V1939H1910.31V1965.78H1937.62V1994.27H1964.39V2021.62H1993.48V2049H2047V2022.79H2020.23V1996.01H1991.74V1966.35H1964.97V1938.42H1938.22V1856.79H1965.57V1830.79H1991.74V1803.44H2019.08V1775.94H1965.57V1804.01H1937.05V1830.19H1910.31V1856.79H1881.79V1886.06H1855.04V1775.94H1800.35Z" fill="white"/>
</g>
<defs>
<linearGradient id="paint0_linear_6280_741" x1="1472.67" y1="1148.81" x2="1472.67" y2="3.21244" gradientUnits="userSpaceOnUse">
<stop stop-color="#7CCAD4"/>
<stop offset="1" stop-color="#80C69E"/>
</linearGradient>
<clipPath id="clip0_6280_741">
<rect width="2047" height="2049" fill="white"/>
</clipPath>
</defs>
</svg>
