<svg width="2047" height="1516" viewBox="0 0 2047 1516" fill="none" xmlns="http://www.w3.org/2000/svg">
<g clip-path="url(#clip0_6280_754)">
<path d="M0 1263.04V1431.81H32.9663V1331.43H50.9287V1363.42H67.4118V1398.34H84.8723V1415.8H99.9026V1398.34H118.816V1382.33H135.299V1347.44H152.258V1431.81H187.179V1261.11H152.76V1296.98H134.797V1330.45H117.839V1346.46H100.378V1364.87H84.3704V1329.98H67.4118V1311.54H49.9513V1279.52H32.0153V1262.93L0 1263.04Z" fill="white"/>
<path d="M900.656 570.907V1145.91H1550.26V1062.09H1634.08V979.46H1717.73V895.113H1800.99V809.049H1885.34V724.174H1965.64V642.257H2045.94V0H1473.31V83.9507H1392.98V167.611H1312.15V246.173H1227.68V328.221H1147.9V408.553H1064.77V488.858H982.728V572.941L900.656 570.907Z" fill="url(#paint0_linear_6280_754)"/>
<path d="M0 570.907V1145.91H649.605V1062.09H733.394V979.46H817.051V895.113H900.339V809.049H984.656V724.174H1064.96V642.257H1145.29V0H572.631V83.9507H492.328V167.611H411.497V246.173H326.995V328.221H247.221V408.553H164.118V488.858H82.0459V572.941L0 570.907Z" fill="white"/>
<path d="M273.504 1261.11H239.56V1431.81H273.504V1261.11Z" fill="white"/>
<path d="M306.972 1261.11H339.938V1280.5H358.35V1297.48H374.358V1331.43H391.818V1348.89H408.301V1365.37H426.686V1261.11H460.683V1431.81H428.166L427.69 1415.8H409.754V1396.89H392.32V1380.88H374.358V1346.46H358.852V1330.93H340.414V1431.81H306.972V1261.11Z" fill="white"/>
<path d="M647.386 1295.53V1278.55H631.378V1261.08H495.604V1431.79H612.967V1415.3H645.933V1399.29H663.869V1295.5H647.386V1295.53ZM629.925 1382.84H613.918V1399.32H579.736V1415.8H529.072V1279.05H596.959V1297.49H613.442V1312.04H629.925V1382.84Z" fill="white"/>
<path d="M767.153 1261.11H800.146V1280.5H818.557V1297.48H834.565V1311.49H852.025V1328.95H868.508V1365.37H886.867V1261.11H920.89V1431.81H888.346L887.871 1397.28H869.961V1378.37H852.501V1362.36H834.565V1346.46H819.032V1313.84H800.621V1431.81H767.153V1261.11Z" fill="white"/>
<path d="M971.554 1261.11V1431.81H1090.85V1399.05H1006.71V1364.85H1074.12V1346.46H1090.85V1329.95H1006.71V1295.74H989.015V1278.28H1159.23V1431.81H1194.13V1276.83H1244.32V1296.48H1262.76V1346.46H1280.69V1400.51H1296.22V1431.81H1327.98V1399.77H1346.65V1346.46H1364.35V1313.94H1383.26V1364.13H1397.08V1413.58H1415.99V1431.81H1448.72V1399.77H1464.73V1346.46H1482.9V1293.57H1501.1V1261.11H1466.18V1295.74H1448.01V1346.46H1431.02V1362.68H1415.25V1312.49H1397.08V1261.11H1346.89V1311.75H1329.43V1362.68H1312.71V1346.46H1296.22V1293.57H1277.79V1261.11H971.554Z" fill="white"/>
<path d="M1669.6 1297.7V1278.78H1652.62V1261.11H1553.22V1278.31H1515.87V1314.18H1501.08V1381.59H1517.32V1396.62H1535.26V1415.06H1553.19V1431.81H1637.09V1413.58H1669.58V1396.6H1687.51V1297.67H1669.58L1669.6 1297.7ZM1654.1 1380.62H1636.64V1398.55H1602.69V1415.04H1586.69V1398.55H1551.77V1381.09H1534.31V1311.25H1552.74V1295.74H1568.75L1569.23 1279.26H1619.65V1293.81H1654.07V1380.62H1654.1Z" fill="white"/>
<path d="M1842.26 1364.13V1346.46H1858.74V1279.26H1840.8V1261.11H1721.04V1431.81H1756.91V1381.62H1809.76V1415.06H1824.32V1431.81H1858.74V1415.06H1840.8V1380.7H1825.72V1364.16H1842.26V1364.13ZM1824.42 1346.46H1756.78V1293.94H1741.43V1276.85H1808.05V1292.86H1824.42V1346.49V1346.46Z" fill="white"/>
<path d="M1892.79 1261.11V1431.81H1927.71V1363.02H1961.55V1379.77H1978.64V1397.58H1995.36V1414.69H2013.56V1431.81H2047V1415.41H2030.28V1398.68H2012.45V1380.14H1995.73V1362.68H1979.01V1311.64H1996.1V1295.4H2012.45V1278.28H2029.54V1261.11H1996.1V1278.65H1978.27V1295.03H1961.55V1311.64H1943.72V1329.95H1927V1261.11H1892.79Z" fill="white"/>
</g>
<defs>
<linearGradient id="paint0_linear_6280_754" x1="1473.31" y1="1149.11" x2="1473.31" y2="3.19637" gradientUnits="userSpaceOnUse">
<stop stop-color="#7CCAD4"/>
<stop offset="1" stop-color="#80C69E"/>
</linearGradient>
<clipPath id="clip0_6280_754">
<rect width="2047" height="1516" fill="white"/>
</clipPath>
</defs>
</svg>
