<svg width="2047" height="2033" viewBox="0 0 2047 2033" fill="none" xmlns="http://www.w3.org/2000/svg">
<g clip-path="url(#clip0_6280_700)">
<path d="M900.282 570.757V1145.6H1549.6V1061.8H1633.34V979.182H1716.97V894.879H1800.2V808.805H1884.49V723.961H1964.78V642.09H2045.05V0H1472.67V83.9127H1392.4V167.555H1311.57V246.094H1227.13V328.145H1147.41V408.425H1064.32V488.735H982.287V572.798L900.282 570.757Z" fill="url(#paint0_linear_6280_700)"/>
<path d="M0 570.757V1145.6H649.315V1061.8H733.091V979.182H816.717V894.879H899.922V808.805H984.238V723.961H1064.5V642.09H1144.77V0H572.383V83.9127H492.119V167.555H411.315V246.094H326.879V328.145H247.125V408.425H164.04V488.735H82.0049V572.798L0 570.757Z" fill="#040000"/>
<path d="M0 1297.15V1567.11H52.7389V1406.52H81.4346V1457.74H107.819V1513.58H135.734V1541.5H159.777V1513.58H190.034V1488H216.388V1432.13H243.523V1567.11H299.384V1294.06H244.304V1351.46H215.608V1404.99H188.473V1430.57H160.558V1460.05H134.954V1404.21H107.819V1374.73H79.8737V1323.54H51.178V1296.97L0 1297.15Z" fill="#040000"/>
<path d="M437.429 1294.06H383.129V1567.11H437.429V1294.06Z" fill="#040000"/>
<path d="M490.949 1294.06H543.688V1325.07H573.164V1352.24H598.768V1406.52H626.683V1434.47H653.037V1460.83H682.424V1294.06H736.813V1567.11H684.795L684.014 1541.5H655.379V1511.27H627.463V1485.66H598.768V1430.57H573.944V1405.77H544.468V1567.11H490.949V1294.06Z" fill="#040000"/>
<path d="M1035.42 1349.12V1321.98H1009.81V1294.06H792.644V1567.11H980.336V1540.72H1033.08V1515.11H1061.77V1349.09H1035.39L1035.42 1349.12ZM1007.5 1488.75H981.897V1515.14H927.207V1541.53H846.163V1322.76H954.732V1352.24H981.117V1375.51H1007.5V1488.78V1488.75Z" fill="#040000"/>
<path d="M0 1759.95H52.7389V1790.96H82.215V1818.13H107.819V1840.53H135.734V1868.45H162.089V1926.72H191.475V1759.95H245.865V2033H193.846L193.066 1977.79H164.43V1947.53H136.515V1921.92H107.819V1896.46H82.9954V1844.31H53.5193V2033H0V1759.95Z" fill="#040000"/>
<path d="M326.909 1759.95V2033H517.723V1980.58H383.129V1925.91H490.948V1896.46H517.723V1870.04H383.129V1815.37H354.824V1787.42H627.073V2033H682.903V1785.11H763.197V1816.51H792.673V1896.46H821.369V1982.92H846.163V2033H896.981V1981.75H926.847V1896.46H955.152V1844.46H985.409V1924.74H1007.5V2003.88H1037.76V2033H1090.11V1981.75H1115.68V1896.46H1144.77V1811.86H1173.85V1759.95H1118.02V1815.37H1088.94V1896.46H1061.8V1922.4H1036.59V1842.12H1007.5V1759.95H927.237V1840.95H899.292V1922.4H872.547V1896.46H846.163V1811.86H816.717V1759.95H326.909Z" fill="#040000"/>
<path d="M1443.37 1818.46V1788.2H1416.23V1759.92H1257.24V1787.42H1197.51V1844.82H1173.85V1952.66H1199.85V1976.71H1228.54V2006.19H1257.24V2033H1391.41V2003.85H1443.37V1976.71H1472.07V1818.46H1443.37ZM1418.58 1951.1H1390.66V1979.8H1336.36V2006.19H1310.76V1979.8H1254.93V1951.88H1227.01V1840.17H1256.49V1815.34H1282.09L1282.87 1788.95H1363.53V1812.22H1418.61V1951.07L1418.58 1951.1Z" fill="#040000"/>
<path d="M1719.49 1924.74V1896.46H1745.88V1788.98H1717.18V1759.95H1525.61V2033H1583.01V1952.72H1667.53V2006.19H1690.8V2033H1745.88V2006.19H1717.18V1951.22H1693.05V1924.74H1719.52H1719.49ZM1691.01 1896.46H1582.8V1812.43H1558.27V1785.08H1664.83V1810.68H1691.01V1896.46Z" fill="#040000"/>
<path d="M1800.35 1759.95V2033H1856.19V1923H1910.31V1949.75H1937.62V1978.27H1964.39V2005.62H1993.48V2033H2047V2006.76H2020.23V1980.01H1991.74V1950.35H1964.97V1922.4H1938.22V1840.8H1965.57V1814.77H1991.74V1787.42H2019.08V1759.95H1965.57V1788.02H1937.05V1814.2H1910.31V1840.8H1881.79V1870.04H1855.04V1759.95H1800.35Z" fill="#040000"/>
</g>
<defs>
<linearGradient id="paint0_linear_6280_700" x1="1472.67" y1="1148.78" x2="1472.67" y2="3.21235" gradientUnits="userSpaceOnUse">
<stop stop-color="#7CCAD4"/>
<stop offset="1" stop-color="#80C69E"/>
</linearGradient>
<clipPath id="clip0_6280_700">
<rect width="2047" height="2033" fill="white"/>
</clipPath>
</defs>
</svg>
