<svg width="3722" height="747" viewBox="0 0 3722 747" fill="none" xmlns="http://www.w3.org/2000/svg">
<g clip-path="url(#clip0_6280_783)">
<path d="M586.998 371.9V746.467H1010.37V691.865H1065V638.039H1119.52V583.094H1173.79V527.03H1228.76V471.741H1281.1V418.378H1333.43V0H960.224V54.6871H907.87V109.185H855.189V160.362H800.132V213.81H748.14V266.139H693.961V318.452H640.488V373.225L586.998 371.9Z" fill="url(#paint0_linear_6280_783)"/>
<path d="M0 371.9V746.467H423.376V691.865H477.986V638.039H532.509V583.094H586.791V527.03H641.744V471.741H694.081V418.378H746.435V0H373.209V54.6871H320.872V109.185H268.191V160.362H213.117V213.81H161.125V266.139H106.963V318.452H53.473V373.225L0 371.9Z" fill="white"/>
<path d="M1504.51 3.35556V295.617H1561.65V121.764H1592.74V177.191H1621.3V237.66H1651.55V267.894H1677.6V237.66H1710.36V209.955H1738.92V149.486H1768.33V295.617H1828.82V0H1769.17V62.1382H1738.08V120.095H1708.67V147.8H1678.42V179.721H1650.71V119.252H1621.3V87.3479H1591.05V31.9209H1559.96V3.14907L1504.51 3.35556Z" fill="white"/>
<path d="M1978.38 0H1919.57V295.617H1978.38V0Z" fill="white"/>
<path d="M2036.36 0H2093.49V33.5901H2125.42V62.9813H2153.14V121.764H2183.39V151.998H2211.95V180.564H2243.78V0H2302.69V295.617H2246.35L2245.52 267.894H2214.48V235.148H2184.23V207.425H2153.14V147.8H2126.26V120.938H2094.33V295.617H2036.36V0Z" fill="white"/>
<path d="M2626.17 59.6258V30.2345H2598.43V0H2363.17V295.617H2566.5V267.068H2623.64V239.364H2654.73V59.6258H2626.17ZM2595.92 210.798H2568.18V239.346H2508.94V267.894H2421.14V31.0777H2538.76V62.9986H2567.32V88.1911H2595.88V210.798H2595.92Z" fill="white"/>
<path d="M1504.51 451.383H1561.65V484.973H1593.57V514.364H1621.3V538.61H1651.55V568.845H1680.11V631.947H1711.93V451.383H1770.86V746.999H1714.51L1713.67 687.219H1682.62V654.455H1652.39V626.75H1621.3V599.182H1594.41V542.706H1562.49V746.999H1504.51V451.383Z" fill="white"/>
<path d="M1858.66 451.383V746.999H2065.34V690.247H1919.57V631.052H2036.36V599.182H2065.34V570.583H1919.57V511.37H1888.91V481.135H2183.82V746.999H2244.3V478.623H2331.26V512.643H2363.19V599.182H2394.28V692.777H2421.16V746.999H2476.2V691.521H2508.55V599.182H2539.21V542.878H2571.99V629.796H2595.92V715.457H2628.7V746.999H2685.41V691.521H2713.14V599.182H2744.65V507.601H2776.15V451.383H2715.65V511.37H2684.15V599.182H2654.74V627.266H2627.44V540.348H2595.92V451.383H2508.96V539.092H2478.71V627.266H2449.74V599.182H2421.16V507.601H2389.24V451.383H1858.66Z" fill="white"/>
<path d="M3068.12 514.743V481.996H3038.71V451.4H2866.47V481.153H2801.77V543.291H2776.15V660.03H2804.3V686.066H2835.39V717.987H2866.48V747.017H3011.84V715.475H3068.14V686.083H3099.23V514.76H3068.14L3068.12 514.743ZM3041.23 658.344H3010.98V689.422H2952.17V717.97H2924.45V689.422H2863.95V659.187H2833.71V538.249H2865.64V511.37H2893.38L2894.22 482.822H2981.61V508.015H3041.26V658.344H3041.23Z" fill="white"/>
<path d="M3367.23 629.796V599.2H3395.79V482.839H3364.7V451.4H3157.18V747.017H3219.34V660.099H3310.93V717.987H3336.14V747.017H3395.79V717.987H3364.7V658.464H3338.55V629.813H3367.21L3367.23 629.796ZM3336.34 599.183H3219.14V508.221H3192.57V478.623H3307.99V506.328H3336.34V599.183Z" fill="white"/>
<path d="M3454.81 451.383V746.999H3515.3V627.903H3573.91V656.881H3603.54V687.735H3632.51V717.333H3664.02V746.999H3722V718.606H3693.01V689.628H3662.14V657.5H3633.15V627.266H3604.16V538.903H3633.79V510.75H3662.14V481.135H3691.75V451.383H3633.79V481.772H3602.9V510.114H3573.91V538.903H3543.04V570.583H3514.05V451.383H3454.81Z" fill="white"/>
</g>
<defs>
<linearGradient id="paint0_linear_6280_783" x1="960.224" y1="748.549" x2="960.224" y2="2.08218" gradientUnits="userSpaceOnUse">
<stop stop-color="#7CCAD4"/>
<stop offset="1" stop-color="#80C69E"/>
</linearGradient>
<clipPath id="clip0_6280_783">
<rect width="3722" height="747" fill="white"/>
</clipPath>
</defs>
</svg>
